<?xml version="1.0" standalone="no"?>
<!DOCTYPE svg PUBLIC "-//W3C//DTD SVG 20010904//EN"
 "http://www.w3.org/TR/2001/REC-SVG-20010904/DTD/svg10.dtd">
<svg version="1.0" xmlns="http://www.w3.org/2000/svg"
 width="700.000000pt" height="700.000000pt" viewBox="0 0 700.000000 700.000000"
 preserveAspectRatio="xMidYMid meet">
<metadata>
Created by potrace 1.14, written by Peter Selinger 2001-2017
</metadata>
<g transform="translate(0.000000,700.000000) scale(0.100000,-0.100000)"
fill="#000000" stroke="none">
<path d="M1330 5999 c-311 -314 -650 -656 -753 -761 l-189 -190 24 -26 c13
-15 26 -29 30 -32 18 -14 1558 -1552 1558 -1556 0 -3 -301 -306 -668 -674
l-668 -668 1 -692 0 -692 689 0 689 0 673 673 c370 370 675 671 678 669 3 -3
366 -363 806 -800 441 -437 806 -795 810 -795 8 0 713 695 1418 1395 100 99
112 115 93 122 -5 2 -372 363 -815 802 l-806 799 575 576 c316 317 583 587
594 601 88 116 138 272 135 420 -2 94 -9 134 -35 213 -43 130 -87 186 -353
452 -287 287 -285 284 -380 336 -104 56 -206 78 -336 74 -58 -2 -118 -7 -135
-10 -54 -11 -159 -57 -215 -94 -32 -21 -301 -282 -633 -613 -318 -318 -582
-578 -585 -578 -6 0 -851 836 -1497 1480 l-140 140 -565 -571z m776 -481 c99
-101 183 -188 187 -194 4 -7 -62 -80 -163 -182 -94 -93 -170 -173 -170 -177 0
-3 73 -80 161 -170 l162 -164 171 175 c94 96 174 174 179 174 4 0 110 -103
236 -229 l230 -230 -331 -331 c-298 -297 -332 -329 -347 -316 -14 13 -1161
1161 -1169 1170 -2 2 146 155 329 340 183 185 335 332 339 326 3 -5 87 -92
186 -192z m2284 -1007 c118 -121 232 -237 252 -258 l38 -39 -1445 -1449 -1444
-1450 -261 -1 -260 -1 0 262 0 262 1193 1191 c655 655 1307 1305 1447 1446
140 140 257 255 260 256 2 0 101 -99 220 -219z m312 -1598 l227 -228 -175
-175 -175 -176 164 -169 164 -168 163 159 c89 87 170 167 179 176 15 16 29 4
206 -178 105 -108 192 -200 193 -205 2 -5 -144 -155 -325 -334 l-328 -324
-595 594 -594 594 329 331 c182 181 332 330 334 330 3 0 107 -102 233 -227z"/>
</g>
</svg>
